<svg xmlns="http://www.w3.org/2000/svg" viewBox="0 0 24 24" fill="none">
  <rect width="24" height="24" rx="6" fill="#000000" />
  <path
    d="M9.75 3.104v5.714a2.25 2.25 0 0 1-.659 1.591L5 14.5M9.75 3.104c-.251.023-.501.05-.75.082m.75-.082a24.301 24.301 0 0 1 4.5 0m0 0v5.714a2.25 2.25 0 0 0 .659 1.591L19 14.5M14.25 3.104c.251.023.501.05.75.082M19 14.5l-1.47 4.306a2.25 2.25 0 0 1-2.133 1.544H8.603a2.25 2.25 0 0 1-2.134-1.544L5 14.5m14 0H5"
    stroke="#FFFFFF"
    stroke-width="2"
    stroke-linecap="round"
    stroke-linejoin="round"
  />
</svg>
